# xmcd
#
# Track frame offsets: 
#        150
#        18036
#        33083
#        51318
#        65920
#        85235
#        101480
#        119789
#        137362
#        153669
#        166460
#        183220
#        200805
#        215900
#        239311
#        256261
#        268839
#        292222
#        314733
#        330248
#
# Disc length: 4629 seconds
#
# Revision: 0
# Processed by: cddbd v1.5.2PL0 Copyright (c) Steve Scherf et al.
# Submitted via: ExactAudioCopyFreeDBPlugin 1.0
#
DISCID=34121314
DTITLE=Ministry of Sound - Throwback R&B Disc 2
DYEAR=2015
DGENRE=R&B
TTITLE0=Faith Evans - Love Like This
TTITLE1=Montell Jordan - This Is How We Do It
TTITLE2=Mark Morrison - Return Of The Mack
TTITLE3=LL Cool J - Phenomenon
TTITLE4=Mary J. Blige - Family Affair
TTITLE5=The Notorious B.I.G. - Puff Daddy - Mase - Mo Money Mo Problems
TTITLE6=Mase - Feel So Good
TTITLE7=112 - The Notorious B.I.G. - Mase - Only You (Bad Boy Remix)
TTITLE8=Backstreet - Dr. Dre - No Diggity
TTITLE9=Salt 'N' Pepa - En Vogue - Whatta Man
TTITLE10=Bobby Brown - Every Little Step
TTITLE11=Bell Biv DeVoe - Poison
TTITLE12=Heavy D - The Boyz - Aaron Hall - Now That We Found Love
TTITLE13=Fabulous - Mike Shorey - Lil' Mo - Can't Let You Go
TTITLE14=Shola Ama - You're The One I Love
TTITLE15=Beverly Knight - Flavour Of The Old School
TTITLE16=Brandy - I Wanna Be Down
TTITLE17=Sweetbox - Everything's Gonna Be Alright
TTITLE18=Craig David - 7 Days
TTITLE19=Lutricia McNeal - Ain't That Just The Way
EXTD=
EXTT0=
EXTT1=
EXTT2=
EXTT3=
EXTT4=
EXTT5=
EXTT6=
EXTT7=
EXTT8=
EXTT9=
EXTT10=
EXTT11=
EXTT12=
EXTT13=
EXTT14=
EXTT15=
EXTT16=
EXTT17=
EXTT18=
EXTT19=
PLAYORDER=
